<svg id="Layer_1" data-name="Layer 1" xmlns="http://www.w3.org/2000/svg" xmlns:xlink="http://www.w3.org/1999/xlink" viewBox="0 0 1340.41 295.81">
  <defs>
    <style>
      .cls-1 {
        fill: #db6c69;
      }

      .cls-2 {
        fill: url(#linear-gradient);
      }
    </style>
    <linearGradient id="linear-gradient" x1="0" y1="128.1" x2="175.62" y2="128.1" gradientUnits="userSpaceOnUse">
      <stop offset="0" stop-color="#db6c69" stop-opacity=".7"/>
      <stop offset=".23" stop-color="#db6c69" stop-opacity=".74"/>
      <stop offset=".62" stop-color="#db6c69" stop-opacity=".86"/>
      <stop offset="1" stop-color="#db6c69"/>
    </linearGradient>
  </defs>
  <g>
    <path class="cls-1" d="m262.17,218.13c-10.36,0-19.72-2.68-28.1-8.03-8.38-5.36-15-13.26-19.89-23.7-4.88-10.45-7.32-23.27-7.32-38.48s2.52-28.63,7.55-39.02c5.03-10.39,11.73-18.17,20.11-23.35,8.37-5.18,17.56-7.77,27.57-7.77,7.64,0,14.01,1.29,19.13,3.86,5.12,2.57,9.26,5.77,12.43,9.59,3.17,3.82,5.58,7.56,7.24,11.23h1.15V34.09h37.73v181.82h-37.29v-21.84h-1.6c-1.78,3.79-4.28,7.53-7.5,11.23-3.23,3.7-7.4,6.76-12.52,9.19-5.12,2.43-11.35,3.64-18.69,3.64Zm11.99-30.1c6.1,0,11.26-1.67,15.49-5.02,4.23-3.34,7.49-8.03,9.77-14.07,2.28-6.04,3.42-13.11,3.42-21.22s-1.12-15.15-3.37-21.13c-2.25-5.98-5.5-10.59-9.77-13.85-4.26-3.25-9.44-4.88-15.54-4.88s-11.45,1.69-15.71,5.06-7.49,8.05-9.68,14.03c-2.19,5.98-3.29,12.9-3.29,20.77s1.11,14.93,3.33,21c2.22,6.07,5.44,10.8,9.68,14.2,4.23,3.4,9.45,5.1,15.67,5.1Z"/>
    <path class="cls-1" d="m432.88,218.57c-14.03,0-26.09-2.85-36.18-8.57-10.09-5.71-17.86-13.82-23.3-24.33-5.45-10.5-8.17-22.95-8.17-37.33s2.72-26.34,8.17-36.93c5.44-10.59,13.12-18.85,23.04-24.77,9.91-5.92,21.56-8.88,34.93-8.88,9,0,17.39,1.44,25.17,4.31,7.78,2.87,14.59,7.18,20.42,12.92,5.83,5.74,10.37,12.95,13.63,21.62,3.25,8.67,4.88,18.81,4.88,30.41v10.39h-115.15v-23.44h79.54c0-5.44-1.18-10.27-3.55-14.47-2.37-4.2-5.64-7.5-9.81-9.9-4.17-2.4-9.01-3.6-14.51-3.6s-10.82,1.32-15.23,3.95c-4.41,2.63-7.86,6.16-10.34,10.56-2.49,4.41-3.76,9.31-3.82,14.69v22.28c0,6.75,1.26,12.58,3.77,17.49,2.52,4.91,6.08,8.7,10.7,11.36,4.62,2.66,10.09,4,16.42,4,4.2,0,8.05-.59,11.54-1.78,3.49-1.18,6.48-2.96,8.97-5.33,2.49-2.37,4.38-5.27,5.68-8.7l34.98,2.31c-1.78,8.4-5.4,15.73-10.88,21.97-5.47,6.25-12.52,11.1-21.13,14.56-8.61,3.46-18.54,5.19-29.79,5.19Z"/>
    <path class="cls-1" d="m582.3,218.57c-14.03,0-26.09-2.85-36.18-8.57-10.09-5.71-17.86-13.82-23.3-24.33-5.45-10.5-8.17-22.95-8.17-37.33s2.72-26.34,8.17-36.93c5.44-10.59,13.12-18.85,23.04-24.77,9.91-5.92,21.56-8.88,34.93-8.88,9,0,17.39,1.44,25.17,4.31,7.78,2.87,14.59,7.18,20.42,12.92,5.83,5.74,10.37,12.95,13.63,21.62,3.25,8.67,4.88,18.81,4.88,30.41v10.39h-115.15v-23.44h79.54c0-5.44-1.18-10.27-3.55-14.47-2.37-4.2-5.64-7.5-9.81-9.9-4.17-2.4-9.01-3.6-14.51-3.6s-10.82,1.32-15.23,3.95c-4.41,2.63-7.86,6.16-10.34,10.56-2.49,4.41-3.76,9.31-3.82,14.69v22.28c0,6.75,1.26,12.58,3.77,17.49,2.51,4.91,6.08,8.7,10.7,11.36s10.09,4,16.42,4c4.2,0,8.05-.59,11.54-1.78,3.49-1.18,6.48-2.96,8.97-5.33,2.49-2.37,4.38-5.27,5.68-8.7l34.98,2.31c-1.78,8.4-5.4,15.73-10.88,21.97-5.47,6.25-12.52,11.1-21.13,14.56-8.61,3.46-18.54,5.19-29.79,5.19Z"/>
    <path class="cls-1" d="m669.57,267.04V79.54h37.29v22.9h1.69c1.66-3.67,4.07-7.41,7.24-11.23,3.17-3.82,7.31-7.01,12.43-9.59,5.12-2.57,11.5-3.86,19.13-3.86,9.94,0,19.12,2.59,27.52,7.77,8.4,5.18,15.12,12.96,20.15,23.35,5.03,10.39,7.55,23.39,7.55,39.02s-2.44,28.04-7.32,38.48c-4.88,10.45-11.51,18.35-19.89,23.7-8.38,5.36-17.74,8.03-28.1,8.03-7.34,0-13.57-1.21-18.69-3.64-5.12-2.43-9.31-5.49-12.56-9.19-3.26-3.7-5.74-7.44-7.46-11.23h-1.15v72.98h-37.82Zm37.02-119.32c0,8.11,1.12,15.18,3.37,21.22,2.25,6.04,5.5,10.73,9.77,14.07,4.26,3.34,9.44,5.02,15.54,5.02s11.36-1.7,15.62-5.1c4.26-3.4,7.5-8.14,9.72-14.2,2.22-6.07,3.33-13.06,3.33-21s-1.1-14.8-3.29-20.77c-2.19-5.98-5.42-10.65-9.68-14.03-4.26-3.37-9.5-5.06-15.71-5.06s-11.35,1.63-15.58,4.88c-4.23,3.26-7.47,7.87-9.72,13.85-2.25,5.98-3.37,13.02-3.37,21.13Z"/>
    <path class="cls-1" d="m940.69,34.09h38.44v118.08c0,13.26-3.15,24.86-9.45,34.8-6.3,9.94-15.11,17.68-26.41,23.22-11.31,5.54-24.47,8.3-39.51,8.3s-28.29-2.77-39.6-8.3c-11.31-5.53-20.09-13.27-26.37-23.22-6.27-9.94-9.41-21.54-9.41-34.8V34.09h38.44v114.79c0,6.92,1.52,13.08,4.57,18.47,3.05,5.39,7.35,9.62,12.92,12.7,5.56,3.08,12.04,4.62,19.44,4.62s13.95-1.54,19.49-4.62c5.53-3.08,9.82-7.31,12.87-12.7,3.05-5.38,4.57-11.54,4.57-18.47V34.09Z"/>
    <path class="cls-1" d="m1109.37,86.38c-.71-7.16-3.76-12.72-9.14-16.69-5.39-3.96-12.7-5.95-21.93-5.95-6.27,0-11.57.87-15.89,2.62-4.32,1.75-7.62,4.16-9.9,7.24-2.28,3.08-3.42,6.57-3.42,10.48-.12,3.26.58,6.1,2.09,8.52,1.51,2.43,3.6,4.51,6.26,6.26,2.66,1.75,5.74,3.26,9.23,4.53,3.49,1.27,7.22,2.35,11.19,3.24l16.33,3.91c7.93,1.78,15.21,4.14,21.84,7.1,6.63,2.96,12.37,6.6,17.22,10.92,4.85,4.32,8.63,9.41,11.32,15.27,2.69,5.86,4.07,12.58,4.13,20.15-.06,11.13-2.89,20.76-8.48,28.9-5.59,8.14-13.64,14.44-24.15,18.91-10.51,4.47-23.16,6.7-37.95,6.7s-27.45-2.25-38.31-6.75c-10.86-4.5-19.33-11.17-25.39-20.02-6.07-8.85-9.25-19.81-9.54-32.89h37.2c.41,6.1,2.17,11.17,5.28,15.23,3.11,4.05,7.28,7.1,12.52,9.14s11.17,3.06,17.8,3.06,12.18-.95,17-2.84c4.82-1.89,8.57-4.53,11.23-7.9,2.66-3.37,4-7.25,4-11.63,0-4.08-1.2-7.52-3.6-10.3-2.4-2.78-5.89-5.15-10.48-7.1-4.59-1.95-10.2-3.73-16.82-5.33l-19.8-4.97c-15.33-3.73-27.43-9.56-36.31-17.49-8.88-7.93-13.29-18.61-13.23-32.05-.06-11.01,2.88-20.63,8.83-28.85,5.95-8.23,14.13-14.65,24.55-19.27,10.42-4.62,22.25-6.92,35.51-6.92s25.29,2.31,35.38,6.92c10.09,4.62,17.95,11.04,23.57,19.27,5.62,8.23,8.52,17.76,8.7,28.59h-36.84Z"/>
    <path class="cls-1" d="m1334.87,97.74h-38.89c-.71-5.03-2.16-9.51-4.35-13.45-2.19-3.94-5-7.29-8.43-10.08-3.43-2.78-7.38-4.91-11.85-6.39-4.47-1.48-9.31-2.22-14.52-2.22-9.41,0-17.61,2.32-24.59,6.97-6.98,4.65-12.4,11.39-16.25,20.24-3.85,8.85-5.77,19.58-5.77,32.18s1.94,23.85,5.82,32.67c3.88,8.82,9.31,15.48,16.29,19.98,6.98,4.5,15.06,6.75,24.24,6.75,5.15,0,9.93-.68,14.34-2.04,4.41-1.36,8.33-3.36,11.76-5.99,3.43-2.63,6.29-5.84,8.57-9.63,2.28-3.79,3.86-8.11,4.75-12.96l38.89.18c-1.01,8.35-3.51,16.38-7.5,24.1s-9.35,14.62-16.07,20.69c-6.72,6.07-14.71,10.86-23.97,14.38-9.26,3.52-19.72,5.28-31.38,5.28-16.22,0-30.7-3.67-43.46-11.01-12.75-7.34-22.82-17.96-30.18-31.87-7.37-13.91-11.05-30.75-11.05-50.51s3.73-36.69,11.19-50.6c7.46-13.91,17.58-24.52,30.36-31.83,12.78-7.31,27.17-10.96,43.15-10.96,10.53,0,20.32,1.48,29.34,4.44,9.02,2.96,17.03,7.27,24.01,12.92,6.98,5.65,12.68,12.56,17.09,20.73,4.41,8.17,7.24,17.52,8.48,28.05Z"/>
  </g>
  <path class="cls-2" d="m0,128.1C0,79.61,39.31,40.29,87.81,40.29s87.81,39.31,87.81,87.81-39.31,87.81-87.81,87.81S0,176.6,0,128.1Z"/>
  <path class="cls-1" d="m1070.12,260.26H240.34s-28.74-18.97-28.74-18.97h858.51v18.97Z"/>
</svg>